<svg width="1584" height="204" fill="none" xmlns="http://www.w3.org/2000/svg"><g clip-path="url(#a)"><mask id="c" style="mask-type:alpha" maskUnits="userSpaceOnUse" x="0" y="0" width="1584" height="204"><path transform="rotate(-90 0 204)" fill="url(#b)" d="M0 204h204v1584H0z"/></mask><g mask="url(#c)"><mask id="e" style="mask-type:alpha" maskUnits="userSpaceOnUse" x="0" y="0" width="1584" height="204"><path transform="rotate(90 1584 0)" fill="url(#d)" d="M1584 0h204v1584h-204z"/></mask><g mask="url(#e)"><mask id="g" style="mask-type:alpha" maskUnits="userSpaceOnUse" x="0" y="0" width="1584" height="204"><path fill="url(#f)" d="M0 0h1584v204H0z"/></mask><g opacity=".3" mask="url(#g)"><ellipse opacity=".6" cx="256" cy="852.8" rx="256" ry="852.8" transform="matrix(0 -1 -1 0 1163.15 271)" fill="url(#h)"/><ellipse opacity=".6" cx="256" cy="852.8" rx="256" ry="852.8" transform="matrix(0 -1 -1 0 2111.45 271)" fill="url(#i)"/></g></g></g><rect x="732" y="63.292" width="120" height="120" rx="12" fill="url(#j)" fill-opacity=".1"/><rect x="731" y="62.292" width="122" height="122" rx="13" stroke="url(#k)" stroke-opacity=".3" stroke-width="2"/><g clip-path="url(#l)"><path d="M746.305 79.863v91.428h7.669c0-21.017 17.054-38.052 38.087-38.052 21.036 0 38.087 17.039 38.087 38.052h7.669V79.863h-91.512Z" fill="#fff"/><path d="M791.974 151.634c-10.869 0-19.677 8.8-19.677 19.657h39.35c.004-10.853-8.804-19.657-19.673-19.657Z" fill="#fff"/><g filter="url(#m)"><rect x="744.012" y="75.292" width="95.989" height="95.999" rx="4" fill="#fff"/></g><path fill-rule="evenodd" clip-rule="evenodd" d="M744 79.292a4 4 0 0 1 4-4h87.989a4 4 0 0 1 4 4v88a4 4 0 0 1-4 4h-4.044c0-22.064-17.885-39.955-39.951-39.955-22.061 0-39.95 17.886-39.95 39.955H748a4 4 0 0 1-4-4v-88Zm27.26 92c0-11.4 9.24-20.639 20.64-20.639s20.64 9.243 20.636 20.639H771.26Z" fill="url(#n)"/></g></g><defs><linearGradient id="b" x1="102" y1="204" x2="102" y2="1796" gradientUnits="userSpaceOnUse"><stop offset=".9" stop-color="#0E1116"/><stop offset="1" stop-color="#0E1116" stop-opacity="0"/></linearGradient><linearGradient id="d" x1="1686" y1="0" x2="1686" y2="1584" gradientUnits="userSpaceOnUse"><stop offset=".9" stop-color="#0E1116"/><stop offset="1" stop-color="#0E1116" stop-opacity="0"/></linearGradient><linearGradient id="f" x1="792" y1="0" x2="792" y2="204" gradientUnits="userSpaceOnUse"><stop stop-color="#0E1116"/><stop offset="1" stop-color="#0E1116" stop-opacity="0"/></linearGradient><linearGradient id="j" x1="732" y1="66.663" x2="854.273" y2="185.299" gradientUnits="userSpaceOnUse"><stop stop-color="#fff"/><stop offset="1" stop-color="#fff" stop-opacity=".1"/></linearGradient><linearGradient id="k" x1="852" y1="179.39" x2="830.683" y2="47.122" gradientUnits="userSpaceOnUse"><stop stop-color="#fff" stop-opacity="0"/><stop offset="1" stop-color="#fff" stop-opacity=".5"/></linearGradient><linearGradient id="n" x1="791.994" y1="75.292" x2="791.994" y2="171.292" gradientUnits="userSpaceOnUse"><stop stop-color="#4DD684"/><stop offset="1" stop-color="#3FCC78"/></linearGradient><radialGradient id="h" cx="0" cy="0" r="1" gradientUnits="userSpaceOnUse" gradientTransform="matrix(-237 0 0 -869.679 256 852.8)"><stop stop-color="#FC82BD"/><stop offset="1" stop-color="#FC82BD" stop-opacity="0"/></radialGradient><radialGradient id="i" cx="0" cy="0" r="1" gradientUnits="userSpaceOnUse" gradientTransform="matrix(-256 0 0 -939.401 256 852.8)"><stop stop-color="#4247D9"/><stop offset="1" stop-color="#4247D9" stop-opacity="0"/></radialGradient><clipPath id="a"><path d="M0 32C0 14.327 14.327 0 32 0h1520c17.67 0 32 14.327 32 32v172H0V32Z" fill="#fff"/></clipPath><clipPath id="l"><rect x="744" y="75.292" width="96" height="96" rx="8" fill="#fff"/></clipPath><filter id="m" x="712.396" y="43.676" width="159.221" height="159.232" filterUnits="userSpaceOnUse" color-interpolation-filters="sRGB"><feFlood flood-opacity="0" result="BackgroundImageFix"/><feColorMatrix in="SourceAlpha" values="0 0 0 0 0 0 0 0 0 0 0 0 0 0 0 0 0 0 127 0" result="hardAlpha"/><feMorphology radius="24.3" in="SourceAlpha" result="effect1_dropShadow_1722_120"/><feOffset/><feGaussianBlur stdDeviation="27.958"/><feComposite in2="hardAlpha" operator="out"/><feColorMatrix values="0 0 0 0 0.259053 0 0 0 0 0.926709 0 0 0 0 0.52709 0 0 0 0.4 0"/><feBlend in2="BackgroundImageFix" result="effect1_dropShadow_1722_120"/><feBlend in="SourceGraphic" in2="effect1_dropShadow_1722_120" result="shape"/></filter></defs></svg>