<svg width="714" height="165" fill="none" xmlns="http://www.w3.org/2000/svg"><g clip-path="url(#a)"><mask id="c" style="mask-type:alpha" maskUnits="userSpaceOnUse" x="0" y="0" width="714" height="165"><path transform="rotate(-90 0 165)" fill="url(#b)" d="M0 165h165v714H0z"/></mask><g mask="url(#c)"><mask id="e" style="mask-type:alpha" maskUnits="userSpaceOnUse" x="0" y="-1" width="714" height="166"><path transform="rotate(90 714 0)" fill="url(#d)" d="M714 0h165v714H714z"/></mask><g mask="url(#e)"><mask id="g" style="mask-type:alpha" maskUnits="userSpaceOnUse" x="-435" y="0" width="1584" height="165"><path fill="url(#f)" d="M-435 0h1584v165H-435z"/></mask><g opacity=".3" mask="url(#g)"><ellipse opacity=".6" cx="256" cy="852.8" rx="256" ry="852.8" transform="matrix(0 -1 -1 0 728.152 271)" fill="url(#h)"/><ellipse opacity=".6" cx="256" cy="852.8" rx="256" ry="852.8" transform="matrix(0 -1 -1 0 1676.45 271)" fill="url(#i)"/></g></g></g><rect x="301" y="40.292" width="112" height="112" rx="12" fill="url(#j)" fill-opacity=".1"/><rect x="300.5" y="39.792" width="113" height="113" rx="12.5" stroke="url(#k)" stroke-opacity=".3"/><g clip-path="url(#l)"><path d="M311.301 52.863v91.428h7.669c0-21.017 17.054-38.052 38.087-38.052 21.037 0 38.087 17.039 38.087 38.052h7.669V52.863h-91.512Z" fill="#fff"/><path d="M356.97 124.634c-10.869 0-19.677 8.8-19.677 19.657h39.35c.004-10.853-8.804-19.657-19.673-19.657Z" fill="#fff"/><g filter="url(#m)"><rect x="309" y="48.292" width="95.989" height="95.999" rx="3.373" fill="#fff"/></g><path fill-rule="evenodd" clip-rule="evenodd" d="M308.996 51.665a3.373 3.373 0 0 1 3.373-3.373h89.243a3.373 3.373 0 0 1 3.373 3.373v89.254a3.373 3.373 0 0 1-3.373 3.372h-4.671c0-22.063-17.885-39.954-39.951-39.954-22.061 0-39.95 17.886-39.95 39.954h-4.671a3.373 3.373 0 0 1-3.373-3.372V51.665Zm27.258 92.627c0-11.4 9.24-20.64 20.64-20.64s20.64 9.244 20.635 20.64h-41.275Z" fill="url(#n)"/></g></g><defs><linearGradient id="b" x1="83" y1="165" x2="83" y2="879" gradientUnits="userSpaceOnUse"><stop offset=".751" stop-color="#0E1116"/><stop offset="1" stop-color="#0E1116" stop-opacity="0"/></linearGradient><linearGradient id="d" x1="796" y1="0" x2="796" y2="697.5" gradientUnits="userSpaceOnUse"><stop offset=".751" stop-color="#0E1116"/><stop offset="1" stop-color="#0E1116" stop-opacity="0"/></linearGradient><linearGradient id="f" x1="357" y1="0" x2="357" y2="165" gradientUnits="userSpaceOnUse"><stop stop-color="#0E1116"/><stop offset="1" stop-color="#0E1116" stop-opacity="0"/></linearGradient><linearGradient id="j" x1="301" y1="43.438" x2="415.121" y2="154.165" gradientUnits="userSpaceOnUse"><stop stop-color="#fff"/><stop offset="1" stop-color="#fff" stop-opacity=".1"/></linearGradient><linearGradient id="k" x1="413" y1="148.65" x2="393.104" y2="25.2" gradientUnits="userSpaceOnUse"><stop stop-color="#fff" stop-opacity="0"/><stop offset="1" stop-color="#fff" stop-opacity=".5"/></linearGradient><linearGradient id="n" x1="356.99" y1="48.292" x2="356.99" y2="144.292" gradientUnits="userSpaceOnUse"><stop stop-color="#4DD684"/><stop offset="1" stop-color="#3FCC78"/></linearGradient><radialGradient id="h" cx="0" cy="0" r="1" gradientUnits="userSpaceOnUse" gradientTransform="matrix(-237 0 0 -869.679 256 852.8)"><stop stop-color="#FC82BD"/><stop offset="1" stop-color="#FC82BD" stop-opacity="0"/></radialGradient><radialGradient id="i" cx="0" cy="0" r="1" gradientUnits="userSpaceOnUse" gradientTransform="matrix(-256 0 0 -939.401 256 852.8)"><stop stop-color="#4247D9"/><stop offset="1" stop-color="#4247D9" stop-opacity="0"/></radialGradient><clipPath id="a"><path d="M0 32C0 14.327 14.327 0 32 0h650c17.673 0 32 14.327 32 32v133H0V32Z" fill="#fff"/></clipPath><clipPath id="l"><rect x="309" y="48.292" width="96" height="96" rx="6.745" fill="#fff"/></clipPath><filter id="m" x="282.342" y="21.634" width="149.305" height="149.316" filterUnits="userSpaceOnUse" color-interpolation-filters="sRGB"><feFlood flood-opacity="0" result="BackgroundImageFix"/><feColorMatrix in="SourceAlpha" values="0 0 0 0 0 0 0 0 0 0 0 0 0 0 0 0 0 0 127 0" result="hardAlpha"/><feMorphology radius="20.489" in="SourceAlpha" result="effect1_dropShadow_1722_189"/><feOffset/><feGaussianBlur stdDeviation="23.574"/><feComposite in2="hardAlpha" operator="out"/><feColorMatrix values="0 0 0 0 0.259053 0 0 0 0 0.926709 0 0 0 0 0.52709 0 0 0 0.4 0"/><feBlend in2="BackgroundImageFix" result="effect1_dropShadow_1722_189"/><feBlend in="SourceGraphic" in2="effect1_dropShadow_1722_189" result="shape"/></filter></defs></svg>