<svg width="1584" height="204" viewBox="0 0 1584 204" fill="none" xmlns="http://www.w3.org/2000/svg">
<g clip-path="url(#clip0_1715_212)">
<path d="M0 32C0 14.3269 14.3269 0 32 0H1552C1569.67 0 1584 14.3269 1584 32V204H0V32Z" fill="#0E1116"/>
<g opacity="0.3">
<mask id="mask0_1715_212" style="mask-type:alpha" maskUnits="userSpaceOnUse" x="-15" y="0" width="1599" height="384">
<rect width="1599" height="384" transform="matrix(-1 0 0 1 1584 0)" fill="url(#paint0_linear_1715_212)"/>
</mask>
<g mask="url(#mask0_1715_212)">
<ellipse opacity="0.6" cx="256" cy="852.8" rx="256" ry="852.8" transform="matrix(-4.85379e-08 -1 -1 3.93649e-08 1163.15 271)" fill="url(#paint1_radial_1715_212)"/>
<ellipse opacity="0.6" cx="256" cy="852.8" rx="256" ry="852.8" transform="matrix(-4.85379e-08 -1 -1 3.93649e-08 2111.45 271)" fill="url(#paint2_radial_1715_212)"/>
</g>
</g>
<rect width="1584" height="212" fill="url(#paint3_linear_1715_212)"/>
<g filter="url(#filter0_bdddd_1715_212)">
<rect x="732" y="63.2922" width="120" height="120" rx="12" fill="url(#paint4_linear_1715_212)" fill-opacity="0.1"/>
<rect x="731" y="62.2922" width="122" height="122" rx="13" stroke="url(#paint5_linear_1715_212)" stroke-opacity="0.3" stroke-width="2"/>
<g clip-path="url(#clip1_1715_212)">
<path d="M746.305 79.8631V171.291H753.974C753.974 150.274 771.028 133.239 792.061 133.239C813.097 133.239 830.148 150.278 830.148 171.291H837.817V79.8631H746.305Z" fill="white"/>
<path d="M791.974 151.634C781.105 151.634 772.297 160.434 772.297 171.291H811.647C811.651 160.438 802.843 151.634 791.974 151.634Z" fill="white"/>
<g filter="url(#filter1_d_1715_212)">
<rect x="744.012" y="75.2922" width="95.9888" height="95.9992" rx="4" fill="white"/>
</g>
<path fill-rule="evenodd" clip-rule="evenodd" d="M744 79.2924C744 77.0832 745.791 75.2924 748 75.2924H835.989C838.198 75.2924 839.989 77.0832 839.989 79.2923V167.292C839.989 169.501 838.198 171.292 835.989 171.292H831.945C831.945 149.228 814.06 131.337 791.994 131.337C769.933 131.337 752.044 149.223 752.044 171.292H748C745.791 171.292 744 169.501 744 167.292V79.2924ZM771.26 171.292C771.26 159.892 780.5 150.653 791.9 150.653C803.3 150.653 812.54 159.896 812.536 171.292H771.26Z" fill="url(#paint6_linear_1715_212)"/>
</g>
</g>
<rect y="188" width="1584" height="16" fill="url(#paint7_linear_1715_212)"/>
<rect x="157" width="204" height="157" transform="rotate(90 157 0)" fill="url(#paint8_linear_1715_212)"/>
<rect x="1427" y="204" width="204" height="157" transform="rotate(-90 1427 204)" fill="url(#paint9_linear_1715_212)"/>
</g>
<defs>
<filter id="filter0_bdddd_1715_212" x="660" y="37.2922" width="206" height="164" filterUnits="userSpaceOnUse" color-interpolation-filters="sRGB">
<feFlood flood-opacity="0" result="BackgroundImageFix"/>
<feGaussianBlur in="BackgroundImageFix" stdDeviation="6"/>
<feComposite in2="SourceAlpha" operator="in" result="effect1_backgroundBlur_1715_212"/>
<feColorMatrix in="SourceAlpha" type="matrix" values="0 0 0 0 0 0 0 0 0 0 0 0 0 0 0 0 0 0 127 0" result="hardAlpha"/>
<feOffset dx="-3"/>
<feGaussianBlur stdDeviation="3.5"/>
<feColorMatrix type="matrix" values="0 0 0 0 0.188235 0 0 0 0 0.129412 0 0 0 0 0.180392 0 0 0 0.1 0"/>
<feBlend mode="normal" in2="effect1_backgroundBlur_1715_212" result="effect2_dropShadow_1715_212"/>
<feColorMatrix in="SourceAlpha" type="matrix" values="0 0 0 0 0 0 0 0 0 0 0 0 0 0 0 0 0 0 127 0" result="hardAlpha"/>
<feOffset dx="-13" dy="-1"/>
<feGaussianBlur stdDeviation="6.5"/>
<feColorMatrix type="matrix" values="0 0 0 0 0.188235 0 0 0 0 0.129412 0 0 0 0 0.180392 0 0 0 0.09 0"/>
<feBlend mode="normal" in2="effect2_dropShadow_1715_212" result="effect3_dropShadow_1715_212"/>
<feColorMatrix in="SourceAlpha" type="matrix" values="0 0 0 0 0 0 0 0 0 0 0 0 0 0 0 0 0 0 127 0" result="hardAlpha"/>
<feOffset dx="-28" dy="-2"/>
<feGaussianBlur stdDeviation="8.5"/>
<feColorMatrix type="matrix" values="0 0 0 0 0.188235 0 0 0 0 0.129412 0 0 0 0 0.180392 0 0 0 0.05 0"/>
<feBlend mode="normal" in2="effect3_dropShadow_1715_212" result="effect4_dropShadow_1715_212"/>
<feColorMatrix in="SourceAlpha" type="matrix" values="0 0 0 0 0 0 0 0 0 0 0 0 0 0 0 0 0 0 127 0" result="hardAlpha"/>
<feOffset dx="-50" dy="-4"/>
<feGaussianBlur stdDeviation="10"/>
<feColorMatrix type="matrix" values="0 0 0 0 0.188235 0 0 0 0 0.129412 0 0 0 0 0.180392 0 0 0 0.01 0"/>
<feBlend mode="normal" in2="effect4_dropShadow_1715_212" result="effect5_dropShadow_1715_212"/>
<feBlend mode="normal" in="SourceGraphic" in2="effect5_dropShadow_1715_212" result="shape"/>
</filter>
<filter id="filter1_d_1715_212" x="712.396" y="43.676" width="159.221" height="159.232" filterUnits="userSpaceOnUse" color-interpolation-filters="sRGB">
<feFlood flood-opacity="0" result="BackgroundImageFix"/>
<feColorMatrix in="SourceAlpha" type="matrix" values="0 0 0 0 0 0 0 0 0 0 0 0 0 0 0 0 0 0 127 0" result="hardAlpha"/>
<feMorphology radius="24.3" operator="erode" in="SourceAlpha" result="effect1_dropShadow_1715_212"/>
<feOffset/>
<feGaussianBlur stdDeviation="27.9581"/>
<feComposite in2="hardAlpha" operator="out"/>
<feColorMatrix type="matrix" values="0 0 0 0 0.259053 0 0 0 0 0.926709 0 0 0 0 0.52709 0 0 0 0.4 0"/>
<feBlend mode="normal" in2="BackgroundImageFix" result="effect1_dropShadow_1715_212"/>
<feBlend mode="normal" in="SourceGraphic" in2="effect1_dropShadow_1715_212" result="shape"/>
</filter>
<linearGradient id="paint0_linear_1715_212" x1="754.528" y1="1.01358e-05" x2="771.823" y2="228.692" gradientUnits="userSpaceOnUse">
<stop/>
<stop offset="1" stop-color="#D9D9D9" stop-opacity="0"/>
</linearGradient>
<radialGradient id="paint1_radial_1715_212" cx="0" cy="0" r="1" gradientUnits="userSpaceOnUse" gradientTransform="translate(256 852.8) rotate(-180) scale(237 869.679)">
<stop stop-color="#FC82BD"/>
<stop offset="1" stop-color="#FC82BD" stop-opacity="0"/>
</radialGradient>
<radialGradient id="paint2_radial_1715_212" cx="0" cy="0" r="1" gradientUnits="userSpaceOnUse" gradientTransform="translate(256 852.8) rotate(-180) scale(256 939.401)">
<stop stop-color="#4247D9"/>
<stop offset="1" stop-color="#4247D9" stop-opacity="0"/>
</radialGradient>
<linearGradient id="paint3_linear_1715_212" x1="792" y1="212" x2="792" y2="0" gradientUnits="userSpaceOnUse">
<stop stop-color="#0E1116"/>
<stop offset="1" stop-color="#0E1116" stop-opacity="0"/>
</linearGradient>
<linearGradient id="paint4_linear_1715_212" x1="732" y1="66.6629" x2="854.273" y2="185.299" gradientUnits="userSpaceOnUse">
<stop stop-color="white"/>
<stop offset="1" stop-color="white" stop-opacity="0.1"/>
</linearGradient>
<linearGradient id="paint5_linear_1715_212" x1="852" y1="179.39" x2="830.683" y2="47.1222" gradientUnits="userSpaceOnUse">
<stop stop-color="white" stop-opacity="0"/>
<stop offset="1" stop-color="white" stop-opacity="0.5"/>
</linearGradient>
<linearGradient id="paint6_linear_1715_212" x1="791.994" y1="75.2924" x2="791.994" y2="171.292" gradientUnits="userSpaceOnUse">
<stop stop-color="#4DD684"/>
<stop offset="1" stop-color="#3FCC78"/>
</linearGradient>
<linearGradient id="paint7_linear_1715_212" x1="792" y1="204" x2="792" y2="188" gradientUnits="userSpaceOnUse">
<stop stop-color="#0E1116"/>
<stop offset="1" stop-color="#0E1116" stop-opacity="0"/>
</linearGradient>
<linearGradient id="paint8_linear_1715_212" x1="259" y1="157" x2="259" y2="0" gradientUnits="userSpaceOnUse">
<stop stop-color="#0E1116"/>
<stop offset="1" stop-color="#0E1116" stop-opacity="0"/>
</linearGradient>
<linearGradient id="paint9_linear_1715_212" x1="1529" y1="361" x2="1529" y2="204" gradientUnits="userSpaceOnUse">
<stop stop-color="#0E1116"/>
<stop offset="1" stop-color="#0E1116" stop-opacity="0"/>
</linearGradient>
<clipPath id="clip0_1715_212">
<path d="M0 32C0 14.3269 14.3269 0 32 0H1552C1569.67 0 1584 14.3269 1584 32V204H0V32Z" fill="white"/>
</clipPath>
<clipPath id="clip1_1715_212">
<rect x="744" y="75.2922" width="96" height="96" rx="8" fill="white"/>
</clipPath>
</defs>
</svg>
